<mxfile host="app.diagrams.net" modified="2023-11-24T15:57:55.902Z" agent="Mozilla/5.0 (Windows NT 10.0; Win64; x64; rv:109.0) Gecko/20100101 Firefox/119.0" etag="_Vi-VuRY5VeH1bm13Gz7" version="22.1.3" type="device">
  <diagram name="Page-1" id="s5MnbTdfENjX18wfYG56">
    <mxGraphModel dx="1434" dy="894" grid="1" gridSize="10" guides="1" tooltips="1" connect="1" arrows="1" fold="1" page="1" pageScale="1" pageWidth="827" pageHeight="1169" math="0" shadow="0">
      <root>
        <mxCell id="0" />
        <mxCell id="1" parent="0" />
        <mxCell id="cJks_lt1kCO7m_ns_HRm-1" value="" style="rounded=0;whiteSpace=wrap;html=1;" vertex="1" parent="1">
          <mxGeometry x="20" y="50" width="180" height="330" as="geometry" />
        </mxCell>
        <mxCell id="cJks_lt1kCO7m_ns_HRm-2" value="" style="rounded=0;whiteSpace=wrap;html=1;" vertex="1" parent="1">
          <mxGeometry x="200" y="50" width="180" height="330" as="geometry" />
        </mxCell>
        <mxCell id="cJks_lt1kCO7m_ns_HRm-3" value="" style="rounded=0;whiteSpace=wrap;html=1;" vertex="1" parent="1">
          <mxGeometry x="380" y="50" width="180" height="330" as="geometry" />
        </mxCell>
        <mxCell id="cJks_lt1kCO7m_ns_HRm-4" value="" style="rounded=0;whiteSpace=wrap;html=1;" vertex="1" parent="1">
          <mxGeometry x="560" y="50" width="180" height="330" as="geometry" />
        </mxCell>
        <mxCell id="cJks_lt1kCO7m_ns_HRm-5" value="" style="rounded=0;whiteSpace=wrap;html=1;" vertex="1" parent="1">
          <mxGeometry x="740" y="50" width="180" height="280" as="geometry" />
        </mxCell>
        <mxCell id="cJks_lt1kCO7m_ns_HRm-10" value="Work Package" style="rounded=0;whiteSpace=wrap;html=1;fillColor=#1ba1e2;strokeColor=#006EAF;fontColor=#ffffff;" vertex="1" parent="1">
          <mxGeometry x="20" y="50" width="180" height="30" as="geometry" />
        </mxCell>
        <mxCell id="cJks_lt1kCO7m_ns_HRm-11" value="Tech Development" style="rounded=0;whiteSpace=wrap;html=1;fillColor=#a20025;strokeColor=#6F0000;fontColor=#ffffff;" vertex="1" parent="1">
          <mxGeometry x="200" y="50" width="180" height="30" as="geometry" />
        </mxCell>
        <mxCell id="cJks_lt1kCO7m_ns_HRm-12" value="Consistency Review | Approval" style="rounded=0;whiteSpace=wrap;html=1;fillColor=#6a00ff;strokeColor=#3700CC;fontColor=#ffffff;" vertex="1" parent="1">
          <mxGeometry x="380" y="50" width="180" height="30" as="geometry" />
        </mxCell>
        <mxCell id="cJks_lt1kCO7m_ns_HRm-13" value="Ratification" style="rounded=0;whiteSpace=wrap;html=1;fillColor=#e3c800;strokeColor=#B09500;fontColor=#000000;" vertex="1" parent="1">
          <mxGeometry x="560" y="50" width="180" height="30" as="geometry" />
        </mxCell>
        <mxCell id="cJks_lt1kCO7m_ns_HRm-14" value="Publication | Maintenance" style="rounded=0;whiteSpace=wrap;html=1;fillColor=#e1d5e7;strokeColor=#9673a6;" vertex="1" parent="1">
          <mxGeometry x="740" y="50" width="180" height="30" as="geometry" />
        </mxCell>
        <mxCell id="cJks_lt1kCO7m_ns_HRm-15" value="" style="ellipse;whiteSpace=wrap;html=1;fillColor=#f5f5f5;fontColor=#333333;strokeColor=#666666;" vertex="1" parent="1">
          <mxGeometry x="100" y="90" width="20" height="20" as="geometry" />
        </mxCell>
        <mxCell id="cJks_lt1kCO7m_ns_HRm-16" value="&lt;div&gt;Draft Work Package&lt;/div&gt;&lt;div&gt;&lt;i&gt;kick-off&lt;/i&gt;&lt;br&gt;&lt;/div&gt;" style="rounded=1;whiteSpace=wrap;html=1;fillColor=#d5e8d4;strokeColor=#82b366;" vertex="1" parent="1">
          <mxGeometry x="60" y="130" width="100" height="50" as="geometry" />
        </mxCell>
        <mxCell id="cJks_lt1kCO7m_ns_HRm-18" value="&lt;div&gt;Discussion&lt;/div&gt;&lt;div&gt;&lt;i&gt;Issues | PR&lt;/i&gt;&lt;br&gt;&lt;/div&gt;" style="rounded=1;whiteSpace=wrap;html=1;fillColor=#d5e8d4;strokeColor=#82b366;" vertex="1" parent="1">
          <mxGeometry x="60" y="200" width="100" height="50" as="geometry" />
        </mxCell>
        <mxCell id="cJks_lt1kCO7m_ns_HRm-19" value="Work Package Approval" style="rounded=1;whiteSpace=wrap;html=1;fillColor=#dae8fc;strokeColor=#6c8ebf;" vertex="1" parent="1">
          <mxGeometry x="60" y="306" width="100" height="50" as="geometry" />
        </mxCell>
        <mxCell id="cJks_lt1kCO7m_ns_HRm-20" value="" style="endArrow=classic;html=1;rounded=0;exitX=0.5;exitY=1;exitDx=0;exitDy=0;entryX=0.5;entryY=0;entryDx=0;entryDy=0;" edge="1" parent="1" source="cJks_lt1kCO7m_ns_HRm-15" target="cJks_lt1kCO7m_ns_HRm-16">
          <mxGeometry width="50" height="50" relative="1" as="geometry">
            <mxPoint x="390" y="400" as="sourcePoint" />
            <mxPoint x="440" y="350" as="targetPoint" />
          </mxGeometry>
        </mxCell>
        <mxCell id="cJks_lt1kCO7m_ns_HRm-21" value="" style="endArrow=classic;html=1;rounded=0;exitX=0.5;exitY=1;exitDx=0;exitDy=0;" edge="1" parent="1" source="cJks_lt1kCO7m_ns_HRm-16">
          <mxGeometry width="50" height="50" relative="1" as="geometry">
            <mxPoint x="100" y="500" as="sourcePoint" />
            <mxPoint x="110" y="200" as="targetPoint" />
          </mxGeometry>
        </mxCell>
        <mxCell id="cJks_lt1kCO7m_ns_HRm-22" value="?" style="rhombus;whiteSpace=wrap;html=1;" vertex="1" parent="1">
          <mxGeometry x="100" y="270" width="20" height="20" as="geometry" />
        </mxCell>
        <mxCell id="cJks_lt1kCO7m_ns_HRm-23" value="" style="endArrow=classic;html=1;rounded=0;exitX=0.5;exitY=1;exitDx=0;exitDy=0;entryX=0.5;entryY=0;entryDx=0;entryDy=0;" edge="1" parent="1" source="cJks_lt1kCO7m_ns_HRm-18" target="cJks_lt1kCO7m_ns_HRm-22">
          <mxGeometry width="50" height="50" relative="1" as="geometry">
            <mxPoint x="390" y="400" as="sourcePoint" />
            <mxPoint x="440" y="350" as="targetPoint" />
          </mxGeometry>
        </mxCell>
        <mxCell id="cJks_lt1kCO7m_ns_HRm-24" value="" style="endArrow=classic;html=1;rounded=0;exitX=0;exitY=0.5;exitDx=0;exitDy=0;entryX=0;entryY=0.5;entryDx=0;entryDy=0;" edge="1" parent="1" source="cJks_lt1kCO7m_ns_HRm-22" target="cJks_lt1kCO7m_ns_HRm-18">
          <mxGeometry width="50" height="50" relative="1" as="geometry">
            <mxPoint x="390" y="400" as="sourcePoint" />
            <mxPoint x="440" y="350" as="targetPoint" />
            <Array as="points">
              <mxPoint x="30" y="280" />
              <mxPoint x="30" y="225" />
            </Array>
          </mxGeometry>
        </mxCell>
        <mxCell id="cJks_lt1kCO7m_ns_HRm-25" value="" style="endArrow=classic;html=1;rounded=0;exitX=0.5;exitY=1;exitDx=0;exitDy=0;" edge="1" parent="1" source="cJks_lt1kCO7m_ns_HRm-22" target="cJks_lt1kCO7m_ns_HRm-19">
          <mxGeometry width="50" height="50" relative="1" as="geometry">
            <mxPoint x="390" y="400" as="sourcePoint" />
            <mxPoint x="440" y="350" as="targetPoint" />
          </mxGeometry>
        </mxCell>
        <mxCell id="cJks_lt1kCO7m_ns_HRm-26" value="&lt;div&gt;Assign Editor&lt;/div&gt;" style="rounded=1;whiteSpace=wrap;html=1;fillColor=#dae8fc;strokeColor=#6c8ebf;" vertex="1" parent="1">
          <mxGeometry x="240" y="130" width="100" height="50" as="geometry" />
        </mxCell>
        <mxCell id="cJks_lt1kCO7m_ns_HRm-27" value="" style="endArrow=classic;html=1;rounded=0;exitX=0.5;exitY=1;exitDx=0;exitDy=0;entryX=0.5;entryY=0;entryDx=0;entryDy=0;" edge="1" parent="1" source="cJks_lt1kCO7m_ns_HRm-19" target="cJks_lt1kCO7m_ns_HRm-26">
          <mxGeometry width="50" height="50" relative="1" as="geometry">
            <mxPoint x="390" y="370" as="sourcePoint" />
            <mxPoint x="440" y="320" as="targetPoint" />
            <Array as="points">
              <mxPoint x="110" y="370" />
              <mxPoint x="180" y="370" />
              <mxPoint x="180" y="90" />
              <mxPoint x="290" y="90" />
            </Array>
          </mxGeometry>
        </mxCell>
        <mxCell id="cJks_lt1kCO7m_ns_HRm-28" value="&lt;div&gt;Discussion&lt;/div&gt;&lt;div&gt;&lt;i&gt;Issues | PR&lt;/i&gt;&lt;br&gt;&lt;/div&gt;" style="rounded=1;whiteSpace=wrap;html=1;fillColor=#d5e8d4;strokeColor=#82b366;" vertex="1" parent="1">
          <mxGeometry x="240" y="200" width="100" height="50" as="geometry" />
        </mxCell>
        <mxCell id="cJks_lt1kCO7m_ns_HRm-29" value="?" style="rhombus;whiteSpace=wrap;html=1;" vertex="1" parent="1">
          <mxGeometry x="280" y="270" width="20" height="20" as="geometry" />
        </mxCell>
        <mxCell id="cJks_lt1kCO7m_ns_HRm-30" value="" style="endArrow=classic;html=1;rounded=0;exitX=0.5;exitY=1;exitDx=0;exitDy=0;entryX=0.5;entryY=0;entryDx=0;entryDy=0;" edge="1" parent="1" source="cJks_lt1kCO7m_ns_HRm-28" target="cJks_lt1kCO7m_ns_HRm-29">
          <mxGeometry width="50" height="50" relative="1" as="geometry">
            <mxPoint x="570" y="400" as="sourcePoint" />
            <mxPoint x="620" y="350" as="targetPoint" />
          </mxGeometry>
        </mxCell>
        <mxCell id="cJks_lt1kCO7m_ns_HRm-31" value="" style="endArrow=classic;html=1;rounded=0;exitX=0;exitY=0.5;exitDx=0;exitDy=0;entryX=0;entryY=0.5;entryDx=0;entryDy=0;" edge="1" parent="1" source="cJks_lt1kCO7m_ns_HRm-29" target="cJks_lt1kCO7m_ns_HRm-28">
          <mxGeometry width="50" height="50" relative="1" as="geometry">
            <mxPoint x="570" y="400" as="sourcePoint" />
            <mxPoint x="620" y="350" as="targetPoint" />
            <Array as="points">
              <mxPoint x="210" y="280" />
              <mxPoint x="210" y="225" />
            </Array>
          </mxGeometry>
        </mxCell>
        <mxCell id="cJks_lt1kCO7m_ns_HRm-32" value="" style="endArrow=classic;html=1;rounded=0;exitX=0.5;exitY=1;exitDx=0;exitDy=0;" edge="1" parent="1" source="cJks_lt1kCO7m_ns_HRm-29">
          <mxGeometry width="50" height="50" relative="1" as="geometry">
            <mxPoint x="570" y="400" as="sourcePoint" />
            <mxPoint x="290" y="306" as="targetPoint" />
          </mxGeometry>
        </mxCell>
        <mxCell id="cJks_lt1kCO7m_ns_HRm-33" value="" style="endArrow=classic;html=1;rounded=0;exitX=0.5;exitY=1;exitDx=0;exitDy=0;" edge="1" parent="1" source="cJks_lt1kCO7m_ns_HRm-26" target="cJks_lt1kCO7m_ns_HRm-28">
          <mxGeometry width="50" height="50" relative="1" as="geometry">
            <mxPoint x="390" y="370" as="sourcePoint" />
            <mxPoint x="440" y="320" as="targetPoint" />
          </mxGeometry>
        </mxCell>
        <mxCell id="cJks_lt1kCO7m_ns_HRm-34" value="Prepare for Review" style="rounded=1;whiteSpace=wrap;html=1;fillColor=#ffe6cc;strokeColor=#d79b00;" vertex="1" parent="1">
          <mxGeometry x="240" y="306" width="100" height="50" as="geometry" />
        </mxCell>
        <mxCell id="cJks_lt1kCO7m_ns_HRm-35" value="Open Review Period" style="rounded=1;whiteSpace=wrap;html=1;fillColor=#dae8fc;strokeColor=#6c8ebf;" vertex="1" parent="1">
          <mxGeometry x="420" y="130" width="100" height="50" as="geometry" />
        </mxCell>
        <mxCell id="cJks_lt1kCO7m_ns_HRm-36" value="" style="endArrow=classic;html=1;rounded=0;exitX=0.5;exitY=1;exitDx=0;exitDy=0;entryX=0.5;entryY=0;entryDx=0;entryDy=0;" edge="1" parent="1">
          <mxGeometry width="50" height="50" relative="1" as="geometry">
            <mxPoint x="290" y="356" as="sourcePoint" />
            <mxPoint x="470" y="130" as="targetPoint" />
            <Array as="points">
              <mxPoint x="290" y="370" />
              <mxPoint x="360" y="370" />
              <mxPoint x="360" y="90" />
              <mxPoint x="470" y="90" />
            </Array>
          </mxGeometry>
        </mxCell>
        <mxCell id="cJks_lt1kCO7m_ns_HRm-37" value="&lt;div&gt;Discussion&lt;/div&gt;&lt;div&gt;&lt;i&gt;Issues | PR&lt;/i&gt;&lt;br&gt;&lt;/div&gt;" style="rounded=1;whiteSpace=wrap;html=1;fillColor=#d5e8d4;strokeColor=#82b366;" vertex="1" parent="1">
          <mxGeometry x="420" y="200" width="100" height="50" as="geometry" />
        </mxCell>
        <mxCell id="cJks_lt1kCO7m_ns_HRm-38" value="?" style="rhombus;whiteSpace=wrap;html=1;" vertex="1" parent="1">
          <mxGeometry x="460" y="270" width="20" height="20" as="geometry" />
        </mxCell>
        <mxCell id="cJks_lt1kCO7m_ns_HRm-39" value="" style="endArrow=classic;html=1;rounded=0;exitX=0.5;exitY=1;exitDx=0;exitDy=0;entryX=0.5;entryY=0;entryDx=0;entryDy=0;" edge="1" parent="1" source="cJks_lt1kCO7m_ns_HRm-37" target="cJks_lt1kCO7m_ns_HRm-38">
          <mxGeometry width="50" height="50" relative="1" as="geometry">
            <mxPoint x="750" y="400" as="sourcePoint" />
            <mxPoint x="800" y="350" as="targetPoint" />
          </mxGeometry>
        </mxCell>
        <mxCell id="cJks_lt1kCO7m_ns_HRm-40" value="" style="endArrow=classic;html=1;rounded=0;exitX=0;exitY=0.5;exitDx=0;exitDy=0;entryX=0;entryY=0.5;entryDx=0;entryDy=0;" edge="1" parent="1" source="cJks_lt1kCO7m_ns_HRm-38" target="cJks_lt1kCO7m_ns_HRm-37">
          <mxGeometry width="50" height="50" relative="1" as="geometry">
            <mxPoint x="750" y="400" as="sourcePoint" />
            <mxPoint x="800" y="350" as="targetPoint" />
            <Array as="points">
              <mxPoint x="390" y="280" />
              <mxPoint x="390" y="225" />
            </Array>
          </mxGeometry>
        </mxCell>
        <mxCell id="cJks_lt1kCO7m_ns_HRm-41" value="" style="endArrow=classic;html=1;rounded=0;exitX=0.5;exitY=1;exitDx=0;exitDy=0;" edge="1" parent="1" source="cJks_lt1kCO7m_ns_HRm-38">
          <mxGeometry width="50" height="50" relative="1" as="geometry">
            <mxPoint x="750" y="400" as="sourcePoint" />
            <mxPoint x="470" y="306" as="targetPoint" />
          </mxGeometry>
        </mxCell>
        <mxCell id="cJks_lt1kCO7m_ns_HRm-42" value="" style="endArrow=classic;html=1;rounded=0;exitX=0.5;exitY=1;exitDx=0;exitDy=0;" edge="1" parent="1" source="cJks_lt1kCO7m_ns_HRm-35" target="cJks_lt1kCO7m_ns_HRm-37">
          <mxGeometry width="50" height="50" relative="1" as="geometry">
            <mxPoint x="390" y="370" as="sourcePoint" />
            <mxPoint x="440" y="320" as="targetPoint" />
          </mxGeometry>
        </mxCell>
        <mxCell id="cJks_lt1kCO7m_ns_HRm-43" value="&lt;div&gt;WG Approval&lt;/div&gt;" style="rounded=1;whiteSpace=wrap;html=1;fillColor=#dae8fc;strokeColor=#6c8ebf;" vertex="1" parent="1">
          <mxGeometry x="420" y="306" width="100" height="50" as="geometry" />
        </mxCell>
        <mxCell id="cJks_lt1kCO7m_ns_HRm-44" value="&lt;div&gt;Steering Committee&lt;/div&gt;&lt;div&gt;Review&lt;br&gt;&lt;/div&gt;" style="rounded=1;whiteSpace=wrap;html=1;fillColor=#dae8fc;strokeColor=#6c8ebf;" vertex="1" parent="1">
          <mxGeometry x="600" y="130" width="100" height="50" as="geometry" />
        </mxCell>
        <mxCell id="cJks_lt1kCO7m_ns_HRm-45" value="" style="endArrow=classic;html=1;rounded=0;exitX=0.5;exitY=1;exitDx=0;exitDy=0;entryX=0.5;entryY=0;entryDx=0;entryDy=0;" edge="1" parent="1">
          <mxGeometry width="50" height="50" relative="1" as="geometry">
            <mxPoint x="470" y="356" as="sourcePoint" />
            <mxPoint x="650" y="130" as="targetPoint" />
            <Array as="points">
              <mxPoint x="470" y="370" />
              <mxPoint x="540" y="370" />
              <mxPoint x="540" y="90" />
              <mxPoint x="650" y="90" />
            </Array>
          </mxGeometry>
        </mxCell>
        <mxCell id="cJks_lt1kCO7m_ns_HRm-46" value="?" style="rhombus;whiteSpace=wrap;html=1;" vertex="1" parent="1">
          <mxGeometry x="640" y="270" width="20" height="20" as="geometry" />
        </mxCell>
        <mxCell id="cJks_lt1kCO7m_ns_HRm-47" value="Approval?" style="text;strokeColor=none;fillColor=none;align=left;verticalAlign=middle;spacingLeft=4;spacingRight=4;overflow=hidden;points=[[0,0.5],[1,0.5]];portConstraint=eastwest;rotatable=0;whiteSpace=wrap;html=1;" vertex="1" parent="1">
          <mxGeometry x="662" y="265" width="80" height="30" as="geometry" />
        </mxCell>
        <mxCell id="cJks_lt1kCO7m_ns_HRm-48" value="" style="endArrow=classic;html=1;rounded=0;entryX=0.5;entryY=0;entryDx=0;entryDy=0;exitX=0.5;exitY=1;exitDx=0;exitDy=0;" edge="1" parent="1" source="cJks_lt1kCO7m_ns_HRm-44" target="cJks_lt1kCO7m_ns_HRm-46">
          <mxGeometry width="50" height="50" relative="1" as="geometry">
            <mxPoint x="390" y="370" as="sourcePoint" />
            <mxPoint x="440" y="320" as="targetPoint" />
          </mxGeometry>
        </mxCell>
        <mxCell id="cJks_lt1kCO7m_ns_HRm-49" value="" style="endArrow=classic;html=1;rounded=0;exitX=0;exitY=0.5;exitDx=0;exitDy=0;entryX=1;entryY=0.5;entryDx=0;entryDy=0;" edge="1" parent="1" source="cJks_lt1kCO7m_ns_HRm-46" target="cJks_lt1kCO7m_ns_HRm-37">
          <mxGeometry width="50" height="50" relative="1" as="geometry">
            <mxPoint x="390" y="370" as="sourcePoint" />
            <mxPoint x="440" y="320" as="targetPoint" />
            <Array as="points">
              <mxPoint x="590" y="280" />
              <mxPoint x="590" y="225" />
            </Array>
          </mxGeometry>
        </mxCell>
        <mxCell id="cJks_lt1kCO7m_ns_HRm-50" value="&lt;div&gt;Create Release Tag&lt;br&gt;&lt;/div&gt;" style="rounded=1;whiteSpace=wrap;html=1;" vertex="1" parent="1">
          <mxGeometry x="600" y="306" width="100" height="50" as="geometry" />
        </mxCell>
        <mxCell id="cJks_lt1kCO7m_ns_HRm-51" value="&lt;div&gt;Publication&lt;br&gt;&lt;/div&gt;" style="rounded=1;whiteSpace=wrap;html=1;" vertex="1" parent="1">
          <mxGeometry x="780" y="130" width="100" height="50" as="geometry" />
        </mxCell>
        <mxCell id="cJks_lt1kCO7m_ns_HRm-52" value="&lt;div&gt;Public Input&lt;/div&gt;&lt;div&gt;&lt;i&gt;Issues | PRs&lt;/i&gt;&lt;br&gt;&lt;/div&gt;" style="rounded=1;whiteSpace=wrap;html=1;" vertex="1" parent="1">
          <mxGeometry x="780" y="255" width="100" height="50" as="geometry" />
        </mxCell>
        <mxCell id="cJks_lt1kCO7m_ns_HRm-53" value="Working Group" style="text;strokeColor=none;fillColor=none;align=left;verticalAlign=middle;spacingLeft=4;spacingRight=4;overflow=hidden;points=[[0,0.5],[1,0.5]];portConstraint=eastwest;rotatable=0;whiteSpace=wrap;html=1;" vertex="1" parent="1">
          <mxGeometry x="780" y="340" width="100" height="30" as="geometry" />
        </mxCell>
        <mxCell id="cJks_lt1kCO7m_ns_HRm-54" value="" style="endArrow=classic;html=1;rounded=0;exitX=0.5;exitY=1;exitDx=0;exitDy=0;entryX=0.5;entryY=0;entryDx=0;entryDy=0;" edge="1" parent="1">
          <mxGeometry width="50" height="50" relative="1" as="geometry">
            <mxPoint x="650" y="356" as="sourcePoint" />
            <mxPoint x="830" y="130" as="targetPoint" />
            <Array as="points">
              <mxPoint x="650" y="370" />
              <mxPoint x="720" y="370" />
              <mxPoint x="720" y="90" />
              <mxPoint x="830" y="90" />
            </Array>
          </mxGeometry>
        </mxCell>
        <mxCell id="cJks_lt1kCO7m_ns_HRm-55" value="" style="endArrow=classic;html=1;rounded=0;exitX=0.5;exitY=1;exitDx=0;exitDy=0;" edge="1" parent="1" source="cJks_lt1kCO7m_ns_HRm-52" target="cJks_lt1kCO7m_ns_HRm-53">
          <mxGeometry width="50" height="50" relative="1" as="geometry">
            <mxPoint x="390" y="370" as="sourcePoint" />
            <mxPoint x="440" y="320" as="targetPoint" />
          </mxGeometry>
        </mxCell>
        <mxCell id="cJks_lt1kCO7m_ns_HRm-56" value="" style="endArrow=classic;html=1;rounded=0;exitX=0.5;exitY=1;exitDx=0;exitDy=0;entryX=0.5;entryY=0;entryDx=0;entryDy=0;" edge="1" parent="1" source="cJks_lt1kCO7m_ns_HRm-51" target="cJks_lt1kCO7m_ns_HRm-52">
          <mxGeometry width="50" height="50" relative="1" as="geometry">
            <mxPoint x="390" y="370" as="sourcePoint" />
            <mxPoint x="440" y="320" as="targetPoint" />
          </mxGeometry>
        </mxCell>
        <mxCell id="cJks_lt1kCO7m_ns_HRm-57" value="Members" style="rounded=1;whiteSpace=wrap;html=1;fillColor=#d5e8d4;strokeColor=#82b366;" vertex="1" parent="1">
          <mxGeometry x="20" y="390" width="100" height="20" as="geometry" />
        </mxCell>
        <mxCell id="cJks_lt1kCO7m_ns_HRm-58" value="Chair" style="rounded=1;whiteSpace=wrap;html=1;fillColor=#dae8fc;strokeColor=#6c8ebf;" vertex="1" parent="1">
          <mxGeometry x="130" y="390" width="100" height="20" as="geometry" />
        </mxCell>
        <mxCell id="cJks_lt1kCO7m_ns_HRm-59" value="Editor" style="rounded=1;whiteSpace=wrap;html=1;fillColor=#ffe6cc;strokeColor=#d79b00;" vertex="1" parent="1">
          <mxGeometry x="240" y="390" width="100" height="20" as="geometry" />
        </mxCell>
        <mxCell id="cJks_lt1kCO7m_ns_HRm-60" value="" style="endArrow=classic;html=1;rounded=0;entryX=0.5;entryY=0;entryDx=0;entryDy=0;exitX=0.5;exitY=1;exitDx=0;exitDy=0;" edge="1" parent="1" source="cJks_lt1kCO7m_ns_HRm-46" target="cJks_lt1kCO7m_ns_HRm-50">
          <mxGeometry width="50" height="50" relative="1" as="geometry">
            <mxPoint x="390" y="370" as="sourcePoint" />
            <mxPoint x="440" y="320" as="targetPoint" />
          </mxGeometry>
        </mxCell>
      </root>
    </mxGraphModel>
  </diagram>
</mxfile>
